<?xml version="1.0" encoding="utf-8"?>
<svg version="1.1" id="master-artboard" xmlns="http://www.w3.org/2000/svg" xmlns:xlink="http://www.w3.org/1999/xlink" x="0px"
	 y="0px" viewBox="0 0 500 500" style="enable-background:new 0 0 500 500;" xml:space="preserve" preserveAspectRatio="xMidYMid meet">
<style type="text/css">
	.st0{fill:#c92052;}
</style>

<path class="st0" d="M42.7,17.2H42c-5.1-0.1-10,2.5-12.5,6.8h-0.1L16.9,45.9h-3v-4.7c0,0,0.1-2.5-1.5-2.3c-0.3,0-0.7,0-0.8,0.1
	C9.2,39.6,5,40.8,5,40.8c-1,0.5-1.8,1.4-1.7,2.5v3.3c0,0-0.1,1,2.2,1.3h9.8c0,0.1-8.3,8.7-8.3,8.7s-3.2,2.6-2.2,13.3
	c0.8,10.7,2.1,36.9,2.1,36.9s-0.1,4.4,2.8,4.6h3.2l0.1,0.1h0.7l0.1-0.1H32c0,0.1,0.1,0.1,0.3,0.1c1-0.1,1.9-0.7,2.5-1.3
	c0.8-0.9,0.7-6,0.7-6s0-0.7,2.1-0.7h69.9c2.1,0,2.1,0.7,2.1,0.7s-0.3,5,0.7,6c0.7,0.7,1.5,1,2.5,1.3c0.1,0,0.3,0,0.3-0.1h18.3
	l0.3,0.1h0.7l0.1-0.1h3c3-0.1,2.8-4.6,2.8-4.6s1.1-26.3,2.1-36.9c0.8-10.7-2.1-13.3-2.1-13.3s-8.3-8.7-8.3-8.9h9.7
	c2.5-0.1,2.2-1.3,2.2-1.3v-3.3c0.1-1-0.7-2.1-1.7-2.5c0,0-4.2-1-6.5-1.8c-0.3-0.1-0.6-0.1-0.7-0.1c-1.8-0.1-1.5,2.3-1.5,2.3v4.7
	h-3.2l-12.6-21.9l0,0c-2.5-4.3-7.5-6.9-12.6-6.8h-0.7c-8,0.3-16.6,0.5-25.2,0.5h-9.3C59.4,17.7,50.8,17.5,42.7,17.2L42.7,17.2z
	 M54.8,91c-1.7,0-3-1.2-3-2.7l0,0l0,0c0-1.6,1.4-2.9,3-2.9h35.6c1.7,0,2.9,1.3,2.9,2.9l0,0c0,1.6-1.4,2.9-3,2.9l0,0L54.8,91L54.8,91
	z M49.5,78.6c-1.9,0-2.6-1.8-3.5-3.5l-4.8-9c-1-1.7,1.7-3.5,3.5-3.5h55.8c1.9,0.1,4.4,1.8,3.5,3.5l-4.8,9c-0.8,1.7-1.7,3.5-3.5,3.5
	H49.5z M107.4,71.7c0.6-2.2,1.1-5.2,2.6-6.1c2.1-2.2,9.6-4.6,15-4.6h0.7c4,0.1,12.1,4.2,7.5,8.3c-1.4,1.3-3.2,2.1-5,2.5L107.4,71.7z
	 M72.9,103.5L72.9,103.5 M18.2,74.4c-1.8-0.4-3.6-1.2-5-2.5c-4.6-4.1,3.5-8.2,7.5-8.3h0.7c5.4,0,12.9,2.4,15,4.6
	c1.5,0.9,2,3.9,2.6,6.1L18.2,74.4z"/>
</svg>
